<svg xmlns="http://www.w3.org/2000/svg" width="50" height="50" viewBox="0 0 50 50"><g transform="translate(-1345 -3991)"><circle cx="25" cy="25" r="25" transform="translate(1345 3991)" fill="#391e88"/><path d="M0,16.5A1.5,1.5,0,0,1-1.5,15V0A1.5,1.5,0,0,1,0-1.5,1.5,1.5,0,0,1,1.5,0V15A1.5,1.5,0,0,1,0,16.5Z" transform="translate(1370.5 4009.5)" fill="#fff"/><path d="M0,9.5a1.494,1.494,0,0,1-.987-.371,1.5,1.5,0,0,1-.141-2.117l7-8a1.5,1.5,0,0,1,2.117-.141A1.5,1.5,0,0,1,8.129.988l-7,8A1.5,1.5,0,0,1,0,9.5Z" transform="translate(1363.5 4007.5)" fill="#fff"/><path d="M7,9.5a1.5,1.5,0,0,1-1.129-.512l-7-8A1.5,1.5,0,0,1-.988-1.129a1.5,1.5,0,0,1,2.117.141l7,8A1.5,1.5,0,0,1,7,9.5Z" transform="translate(1370.5 4007.5)" fill="#fff"/></g></svg>