<svg xmlns="http://www.w3.org/2000/svg" width="8.688" height="144.012" viewBox="0 0 8.688 144.012"><g transform="translate(-1405.856 -623.988)"><path d="M.5,80h-1V0h1Z" transform="translate(1410.5 688)" fill="#fff"/><path d="M-23.592.144a6.873,6.873,0,0,1-1.926-.27,4.517,4.517,0,0,1-1.494-.7l.66-1.464a4.479,4.479,0,0,0,1.284.636,4.823,4.823,0,0,0,1.488.24,2.377,2.377,0,0,0,1.224-.246.743.743,0,0,0,.4-.654.625.625,0,0,0-.234-.5,1.774,1.774,0,0,0-.6-.318q-.366-.12-.99-.264a13.685,13.685,0,0,1-1.572-.456,2.554,2.554,0,0,1-1.05-.732,1.977,1.977,0,0,1-.438-1.344,2.338,2.338,0,0,1,.4-1.326A2.664,2.664,0,0,1-25.254-8.2a4.872,4.872,0,0,1,1.95-.348,6.457,6.457,0,0,1,1.572.192,4.644,4.644,0,0,1,1.344.552l-.6,1.476a4.684,4.684,0,0,0-2.328-.66,2.183,2.183,0,0,0-1.206.264.806.806,0,0,0-.39.7.681.681,0,0,0,.45.642,7.065,7.065,0,0,0,1.374.414,13.685,13.685,0,0,1,1.572.456,2.6,2.6,0,0,1,1.05.72,1.93,1.93,0,0,1,.438,1.332,2.294,2.294,0,0,1-.4,1.314A2.7,2.7,0,0,1-21.636-.2,4.916,4.916,0,0,1-23.592.144Zm9.876,0a4.825,4.825,0,0,1-2.322-.558A4.164,4.164,0,0,1-17.67-1.962,4.265,4.265,0,0,1-18.264-4.2a4.265,4.265,0,0,1,.594-2.238,4.164,4.164,0,0,1,1.632-1.548A4.85,4.85,0,0,1-13.7-8.544a4.9,4.9,0,0,1,1.974.384,3.954,3.954,0,0,1,1.482,1.1L-11.5-5.9a2.683,2.683,0,0,0-2.112-.984A2.8,2.8,0,0,0-15-6.546a2.431,2.431,0,0,0-.954.954A2.8,2.8,0,0,0-16.3-4.2a2.8,2.8,0,0,0,.342,1.392A2.431,2.431,0,0,0-15-1.854a2.8,2.8,0,0,0,1.392.342,2.67,2.67,0,0,0,2.112-1l1.248,1.152A3.89,3.89,0,0,1-11.736-.24,4.939,4.939,0,0,1-13.716.144ZM-2.628,0l-1.62-2.34H-6.036V0H-7.98V-8.4h3.636a4.666,4.666,0,0,1,1.938.372A2.879,2.879,0,0,1-1.14-6.972,2.909,2.909,0,0,1-.7-5.352a2.851,2.851,0,0,1-.45,1.614A2.852,2.852,0,0,1-2.424-2.7L-.54,0Zm-.036-5.352A1.331,1.331,0,0,0-3.12-6.438a2.042,2.042,0,0,0-1.332-.378H-6.036v2.928h1.584A2.019,2.019,0,0,0-3.12-4.272,1.334,1.334,0,0,0-2.664-5.352ZM5.868.144A4.9,4.9,0,0,1,3.51-.42,4.186,4.186,0,0,1,1.866-1.974,4.242,4.242,0,0,1,1.272-4.2a4.242,4.242,0,0,1,.594-2.226A4.186,4.186,0,0,1,3.51-7.98a4.9,4.9,0,0,1,2.358-.564A4.868,4.868,0,0,1,8.22-7.98,4.24,4.24,0,0,1,9.864-6.426a4.21,4.21,0,0,1,.6,2.226,4.21,4.21,0,0,1-.6,2.226A4.24,4.24,0,0,1,8.22-.42,4.868,4.868,0,0,1,5.868.144Zm0-1.656a2.666,2.666,0,0,0,1.344-.342,2.454,2.454,0,0,0,.942-.954A2.8,2.8,0,0,0,8.5-4.2a2.8,2.8,0,0,0-.342-1.392,2.454,2.454,0,0,0-.942-.954,2.666,2.666,0,0,0-1.344-.342,2.666,2.666,0,0,0-1.344.342,2.454,2.454,0,0,0-.942.954A2.8,2.8,0,0,0,3.24-4.2a2.8,2.8,0,0,0,.342,1.392,2.454,2.454,0,0,0,.942.954A2.666,2.666,0,0,0,5.868-1.512ZM12.888-8.4h1.944v6.816h4.212V0H12.888Zm8.208,0H23.04v6.816h4.212V0H21.1Z" transform="translate(1406 651) rotate(90)" fill="#fff"/></g></svg>